<?xml version="1.0" standalone="no"?><svg xmlns="http://www.w3.org/2000/svg" viewBox="0 0 1440 320"><path fill="#f3f3f3" fill-opacity="1" d="M0,0L26.7,0C53.3,0,107,0,160,37.3C213.3,75,267,149,320,154.7C373.3,160,427,96,480,58.7C533.3,21,587,11,640,42.7C693.3,75,747,149,800,170.7C853.3,192,907,160,960,133.3C1013.3,107,1067,85,1120,85.3C1173.3,85,1227,107,1280,122.7C1333.3,139,1387,149,1413,154.7L1440,160L1440,0L1413.3,0C1386.7,0,1333,0,1280,0C1226.7,0,1173,0,1120,0C1066.7,0,1013,0,960,0C906.7,0,853,0,800,0C746.7,0,693,0,640,0C586.7,0,533,0,480,0C426.7,0,373,0,320,0C266.7,0,213,0,160,0C106.7,0,53,0,27,0L0,0Z"></path></svg>