<?xml version="1.0" standalone="no"?><svg xmlns="http://www.w3.org/2000/svg" viewBox="0 0 1440 320"><path fill="#f3f3f3" fill-opacity="1" d="M0,0L26.7,0C53.3,0,107,0,160,37.3C213.3,75,267,149,320,154.7C373.3,160,427,96,480,58.7C533.3,21,587,11,640,42.7C693.3,75,747,149,800,170.7C853.3,192,907,160,960,133.3C1013.3,107,1067,85,1120,85.3C1173.3,85,1227,107,1280,122.7C1333.3,139,1387,149,1413,154.7L1440,160L1440,320L1413.3,320C1386.7,320,1333,320,1280,320C1226.7,320,1173,320,1120,320C1066.7,320,1013,320,960,320C906.7,320,853,320,800,320C746.7,320,693,320,640,320C586.7,320,533,320,480,320C426.7,320,373,320,320,320C266.7,320,213,320,160,320C106.7,320,53,320,27,320L0,320Z"></path></svg>